<svg width="122" height="61" viewBox="0 0 122 61" fill="none" xmlns="http://www.w3.org/2000/svg">
<path d="M39.744 20.7V25.868H30.206V20.7H26.14V34H30.206V28.832H39.744V34H43.791V20.7H39.744ZM50.1523 28.832H62.9583V25.868H50.1523V24.025H63.3003V20.7H46.0863V34L63.3003 33.981V30.675H50.1523V28.832ZM79.4812 29.573V31.036H75.1302C74.9022 31.036 74.6552 31.036 74.4082 31.036C74.1422 31.036 73.8952 31.036 73.6672 31.036H69.2212V23.664H79.4812V25.146H83.5852C83.3952 20.605 82.1412 20.339 74.4082 20.339C65.5352 20.339 65.1552 20.7 65.1552 27.35C65.1552 34 65.5162 34.361 74.4082 34.361C82.1602 34.361 83.3952 34.095 83.5852 29.573H79.4812ZM103.111 20.7H84.4532V23.664H91.7492V34H95.8152V23.664H103.111V20.7ZM116.715 34H121.256L114.036 20.7H108.146L100.926 34H105.467L106.664 31.815H115.518L116.715 34ZM108.26 28.851L111.091 23.645L113.922 28.851H108.26Z" fill="white"/>
<g filter="url(#filter0_i_138_116)">
<path d="M35.621 47V42.275H36.143V47H35.621ZM41.8518 42.275H42.3738V47H41.5188L40.1958 43.22C40.1178 43.016 40.0578 42.779 40.0158 42.509H40.0068C40.0068 42.629 40.0068 42.749 40.0068 42.869C40.0128 42.989 40.0158 43.109 40.0158 43.229V47H39.4938V42.275H40.3398L41.6808 46.145C41.7108 46.217 41.7378 46.295 41.7618 46.379C41.7918 46.457 41.8218 46.55 41.8518 46.658H41.8608C41.8548 46.574 41.8518 46.487 41.8518 46.397V42.275ZM45.5754 47V42.275H47.7894V42.752H46.0974V44.3H47.6724V44.768H46.0974V47H45.5754ZM51.2143 47H50.6923V42.275H51.9073C52.1533 42.275 52.3753 42.296 52.5733 42.338C52.7773 42.374 52.9483 42.443 53.0863 42.545C53.2243 42.641 53.3293 42.779 53.4013 42.959C53.4733 43.133 53.5063 43.355 53.5003 43.625C53.4883 43.901 53.4013 44.132 53.2393 44.318C53.0833 44.504 52.8673 44.615 52.5913 44.651V44.66C52.7413 44.678 52.8673 44.705 52.9693 44.741C53.0713 44.771 53.1523 44.822 53.2123 44.894C53.2723 44.96 53.3173 45.047 53.3473 45.155C53.3833 45.257 53.4103 45.386 53.4283 45.542C53.4403 45.722 53.4523 45.899 53.4643 46.073C53.4823 46.247 53.5033 46.421 53.5273 46.595C53.5393 46.643 53.5543 46.706 53.5723 46.784C53.5963 46.856 53.6413 46.892 53.7073 46.892V47H53.1043C53.0743 46.922 53.0473 46.832 53.0233 46.73C53.0053 46.622 52.9873 46.514 52.9693 46.406C52.9573 46.292 52.9483 46.181 52.9423 46.073C52.9363 45.965 52.9333 45.872 52.9333 45.794C52.9333 45.68 52.9183 45.569 52.8883 45.461C52.8643 45.353 52.8223 45.26 52.7623 45.182C52.7023 45.104 52.6183 45.041 52.5103 44.993C52.4083 44.945 52.2823 44.921 52.1323 44.921H51.2143V47ZM51.2143 44.453H52.0423C52.1023 44.453 52.1833 44.447 52.2853 44.435C52.3933 44.417 52.4953 44.381 52.5913 44.327C52.6933 44.267 52.7803 44.18 52.8523 44.066C52.9243 43.952 52.9573 43.79 52.9513 43.58C52.9513 43.376 52.9153 43.22 52.8433 43.112C52.7713 42.998 52.6843 42.914 52.5823 42.86C52.4803 42.806 52.3723 42.776 52.2583 42.77C52.1443 42.758 52.0423 42.752 51.9523 42.752H51.2143V44.453ZM57.665 42.275H58.358L59.69 47H59.114L58.736 45.641H57.251L56.9 47H56.324L57.665 42.275ZM58.007 42.653H57.998L57.377 45.164H58.619L58.007 42.653ZM64.52 43.517C64.538 43.265 64.484 43.058 64.358 42.896C64.232 42.734 64.037 42.653 63.773 42.653C63.581 42.653 63.428 42.68 63.314 42.734C63.206 42.788 63.122 42.857 63.062 42.941C63.002 43.019 62.963 43.109 62.945 43.211C62.933 43.313 62.927 43.409 62.927 43.499C62.927 43.817 63.077 44.03 63.377 44.138C63.503 44.186 63.626 44.234 63.746 44.282C63.872 44.33 63.998 44.378 64.124 44.426C64.346 44.51 64.526 44.594 64.664 44.678C64.802 44.762 64.907 44.855 64.979 44.957C65.057 45.053 65.108 45.161 65.132 45.281C65.162 45.401 65.177 45.539 65.177 45.695C65.177 46.145 65.045 46.496 64.781 46.748C64.523 46.994 64.166 47.117 63.71 47.117C63.596 47.117 63.476 47.105 63.35 47.081C63.23 47.063 63.11 47.027 62.99 46.973C62.876 46.919 62.768 46.844 62.666 46.748C62.57 46.646 62.489 46.517 62.423 46.361C62.375 46.241 62.345 46.1 62.333 45.938C62.327 45.77 62.324 45.623 62.324 45.497H62.846C62.84 45.671 62.846 45.83 62.864 45.974C62.882 46.112 62.921 46.232 62.981 46.334C63.047 46.43 63.14 46.505 63.26 46.559C63.38 46.613 63.539 46.64 63.737 46.64C64.007 46.64 64.223 46.574 64.385 46.442C64.553 46.304 64.637 46.094 64.637 45.812C64.637 45.632 64.619 45.494 64.583 45.398C64.547 45.296 64.496 45.218 64.43 45.164C64.364 45.104 64.283 45.059 64.187 45.029C64.097 44.999 63.992 44.96 63.872 44.912C63.74 44.858 63.584 44.801 63.404 44.741C63.224 44.675 63.071 44.609 62.945 44.543C62.717 44.429 62.567 44.282 62.495 44.102C62.423 43.916 62.387 43.706 62.387 43.472C62.387 43.076 62.51 42.764 62.756 42.536C63.002 42.302 63.317 42.185 63.701 42.185C64.133 42.185 64.472 42.296 64.718 42.518C64.964 42.734 65.072 43.067 65.042 43.517H64.52ZM67.838 42.275H70.808V42.752H69.584V47H69.062V42.752H67.838V42.275ZM74.2065 47H73.6845V42.275H74.8995C75.1455 42.275 75.3675 42.296 75.5655 42.338C75.7695 42.374 75.9405 42.443 76.0785 42.545C76.2165 42.641 76.3215 42.779 76.3935 42.959C76.4655 43.133 76.4985 43.355 76.4925 43.625C76.4805 43.901 76.3935 44.132 76.2315 44.318C76.0755 44.504 75.8595 44.615 75.5835 44.651V44.66C75.7335 44.678 75.8595 44.705 75.9615 44.741C76.0635 44.771 76.1445 44.822 76.2045 44.894C76.2645 44.96 76.3095 45.047 76.3395 45.155C76.3755 45.257 76.4025 45.386 76.4205 45.542C76.4325 45.722 76.4445 45.899 76.4565 46.073C76.4745 46.247 76.4955 46.421 76.5195 46.595C76.5315 46.643 76.5465 46.706 76.5645 46.784C76.5885 46.856 76.6335 46.892 76.6995 46.892V47H76.0965C76.0665 46.922 76.0395 46.832 76.0155 46.73C75.9975 46.622 75.9795 46.514 75.9615 46.406C75.9495 46.292 75.9405 46.181 75.9345 46.073C75.9285 45.965 75.9255 45.872 75.9255 45.794C75.9255 45.68 75.9105 45.569 75.8805 45.461C75.8565 45.353 75.8145 45.26 75.7545 45.182C75.6945 45.104 75.6105 45.041 75.5025 44.993C75.4005 44.945 75.2745 44.921 75.1245 44.921H74.2065V47ZM74.2065 44.453H75.0345C75.0945 44.453 75.1755 44.447 75.2775 44.435C75.3855 44.417 75.4875 44.381 75.5835 44.327C75.6855 44.267 75.7725 44.18 75.8445 44.066C75.9165 43.952 75.9495 43.79 75.9435 43.58C75.9435 43.376 75.9075 43.22 75.8355 43.112C75.7635 42.998 75.6765 42.914 75.5745 42.86C75.4725 42.806 75.3645 42.776 75.2505 42.77C75.1365 42.758 75.0345 42.752 74.9445 42.752H74.2065V44.453ZM79.7571 42.275H80.2791V45.668C80.2791 45.764 80.2851 45.869 80.2971 45.983C80.3091 46.091 80.3451 46.196 80.4051 46.298C80.4651 46.394 80.5551 46.475 80.6751 46.541C80.7951 46.607 80.9601 46.64 81.1701 46.64C81.3801 46.64 81.5451 46.607 81.6651 46.541C81.7851 46.475 81.8751 46.394 81.9351 46.298C81.9951 46.196 82.0311 46.091 82.0431 45.983C82.0611 45.869 82.0701 45.764 82.0701 45.668V42.275H82.5921V45.857C82.5921 46.283 82.4631 46.601 82.2051 46.811C81.9471 47.015 81.6021 47.117 81.1701 47.117C80.7381 47.117 80.3931 47.015 80.1351 46.811C79.8831 46.601 79.7571 46.283 79.7571 45.857V42.275ZM87.9897 43.697C87.9897 43.553 87.9748 43.418 87.9448 43.292C87.9148 43.166 87.8668 43.058 87.8008 42.968C87.7408 42.872 87.6538 42.797 87.5398 42.743C87.4318 42.683 87.2968 42.653 87.1348 42.653C86.9068 42.653 86.7298 42.725 86.6038 42.869C86.4838 43.007 86.3938 43.178 86.3338 43.382C86.2798 43.58 86.2468 43.79 86.2348 44.012C86.2228 44.228 86.2168 44.414 86.2168 44.57C86.2108 44.732 86.2108 44.93 86.2168 45.164C86.2228 45.398 86.2528 45.626 86.3068 45.848C86.3668 46.064 86.4598 46.25 86.5858 46.406C86.7118 46.562 86.8948 46.64 87.1348 46.64C87.2908 46.64 87.4168 46.61 87.5128 46.55C87.6148 46.49 87.6958 46.412 87.7558 46.316C87.8158 46.22 87.8578 46.112 87.8818 45.992C87.9118 45.866 87.9358 45.74 87.9538 45.614C87.9658 45.56 87.9718 45.506 87.9718 45.452C87.9778 45.398 87.9838 45.344 87.9897 45.29H88.5118C88.5058 45.338 88.5028 45.389 88.5028 45.443C88.5028 45.491 88.4968 45.539 88.4848 45.587C88.4728 45.779 88.4518 45.953 88.4218 46.109C88.3978 46.259 88.3258 46.418 88.2058 46.586C88.0858 46.76 87.9418 46.892 87.7738 46.982C87.6058 47.072 87.4078 47.117 87.1798 47.117C86.8198 47.117 86.5378 47.039 86.3338 46.883C86.1298 46.721 85.9798 46.517 85.8838 46.271C85.7878 46.025 85.7278 45.752 85.7038 45.452C85.6858 45.152 85.6768 44.861 85.6768 44.579C85.6768 44.315 85.6918 44.042 85.7218 43.76C85.7518 43.478 85.8178 43.22 85.9198 42.986C86.0278 42.752 86.1808 42.56 86.3788 42.41C86.5768 42.26 86.8438 42.185 87.1798 42.185C87.4018 42.185 87.5968 42.224 87.7648 42.302C87.9328 42.38 88.0738 42.488 88.1878 42.626C88.3018 42.758 88.3858 42.917 88.4398 43.103C88.4938 43.289 88.5178 43.487 88.5118 43.697H87.9897ZM91.1818 42.275H94.1518V42.752H92.9278V47H92.4058V42.752H91.1818V42.275ZM97.0013 42.275H97.5233V45.668C97.5233 45.764 97.5293 45.869 97.5413 45.983C97.5533 46.091 97.5893 46.196 97.6493 46.298C97.7093 46.394 97.7993 46.475 97.9193 46.541C98.0393 46.607 98.2043 46.64 98.4143 46.64C98.6243 46.64 98.7893 46.607 98.9093 46.541C99.0293 46.475 99.1193 46.394 99.1793 46.298C99.2393 46.196 99.2753 46.091 99.2873 45.983C99.3053 45.869 99.3143 45.764 99.3143 45.668V42.275H99.8363V45.857C99.8363 46.283 99.7073 46.601 99.4493 46.811C99.1913 47.015 98.8463 47.117 98.4143 47.117C97.9823 47.117 97.6373 47.015 97.3793 46.811C97.1273 46.601 97.0013 46.283 97.0013 45.857V42.275ZM103.65 47H103.128V42.275H104.343C104.589 42.275 104.811 42.296 105.009 42.338C105.213 42.374 105.384 42.443 105.522 42.545C105.66 42.641 105.765 42.779 105.837 42.959C105.909 43.133 105.942 43.355 105.936 43.625C105.924 43.901 105.837 44.132 105.675 44.318C105.519 44.504 105.303 44.615 105.027 44.651V44.66C105.177 44.678 105.303 44.705 105.405 44.741C105.507 44.771 105.588 44.822 105.648 44.894C105.708 44.96 105.753 45.047 105.783 45.155C105.819 45.257 105.846 45.386 105.864 45.542C105.876 45.722 105.888 45.899 105.9 46.073C105.918 46.247 105.939 46.421 105.963 46.595C105.975 46.643 105.99 46.706 106.008 46.784C106.032 46.856 106.077 46.892 106.143 46.892V47H105.54C105.51 46.922 105.483 46.832 105.459 46.73C105.441 46.622 105.423 46.514 105.405 46.406C105.393 46.292 105.384 46.181 105.378 46.073C105.372 45.965 105.369 45.872 105.369 45.794C105.369 45.68 105.354 45.569 105.324 45.461C105.3 45.353 105.258 45.26 105.198 45.182C105.138 45.104 105.054 45.041 104.946 44.993C104.844 44.945 104.718 44.921 104.568 44.921H103.65V47ZM103.65 44.453H104.478C104.538 44.453 104.619 44.447 104.721 44.435C104.829 44.417 104.931 44.381 105.027 44.327C105.129 44.267 105.216 44.18 105.288 44.066C105.36 43.952 105.393 43.79 105.387 43.58C105.387 43.376 105.351 43.22 105.279 43.112C105.207 42.998 105.12 42.914 105.018 42.86C104.916 42.806 104.808 42.776 104.694 42.77C104.58 42.758 104.478 42.752 104.388 42.752H103.65V44.453ZM109.156 47V42.275H111.514V42.752H109.678V44.309H111.406V44.786H109.678V46.532H111.532V47H109.156Z" fill="white"/>
</g>
<path d="M1.02601 6.56622L5.91222 1.19139C5.9737 1.12376 6.08621 1.16726 6.08621 1.25866V54.1435C6.08621 54.2353 5.97289 54.2786 5.91168 54.2101L1.02548 48.7491C1.00907 48.7307 1 48.707 1 48.6824V6.63349C1 6.60861 1.00927 6.58463 1.02601 6.56622Z" fill="white" stroke="white" stroke-width="0.7"/>
<path d="M21.2821 6.56622L16.3959 1.19139C16.3344 1.12376 16.2219 1.16726 16.2219 1.25866V54.1435C16.2219 54.2353 16.3352 54.2786 16.3964 54.2101L21.2826 48.7491C21.299 48.7307 21.3081 48.707 21.3081 48.6824V6.63349C21.3081 6.60861 21.2988 6.58463 21.2821 6.56622Z" fill="white" stroke="white" stroke-width="0.7"/>
<path d="M11.1021 59.9293L8.1506 56.9778C8.13171 56.9589 8.12104 56.9558 8.12119 56.9291C8.12614 56.0474 8.2991 25.0399 8.12246 24.4009C8.12047 24.3937 8.11891 24.3932 8.1148 24.387C7.73019 23.8035 7.41069 23.6733 6.72422 23.8521C6.6596 23.8689 6.59521 23.821 6.59521 23.7543V22.753C6.59521 22.6978 6.63999 22.653 6.69521 22.653H14.1164C14.1716 22.653 14.2164 22.676 14.2164 22.7312C14.2146 24.9413 14.1507 53.94 14.2139 56.7326C14.2159 56.8211 14.119 57.0538 14.0564 57.1165L11.2435 59.9293C11.2045 59.9683 11.1411 59.9683 11.1021 59.9293Z" fill="white" stroke="white" stroke-width="0.7"/>
<mask id="path-6-inside-1_138_116" fill="white">
<path d="M14.4524 22.889C14.4524 21.8719 14.0173 20.8964 13.2427 20.1772C12.4682 19.458 11.4177 19.054 10.3224 19.054C9.22704 19.054 8.17656 19.458 7.40203 20.1772C6.62751 20.8964 6.19238 21.8719 6.19238 22.889L10.3224 22.889H14.4524Z"/>
</mask>
<path d="M14.4524 22.889C14.4524 21.8719 14.0173 20.8964 13.2427 20.1772C12.4682 19.458 11.4177 19.054 10.3224 19.054C9.22704 19.054 8.17656 19.458 7.40203 20.1772C6.62751 20.8964 6.19238 21.8719 6.19238 22.889L10.3224 22.889H14.4524Z" fill="white" stroke="white" stroke-width="1.4" mask="url(#path-6-inside-1_138_116)"/>
<defs>
<filter id="filter0_i_138_116" x="35.6211" y="42.185" width="75.9106" height="8.932" filterUnits="userSpaceOnUse" color-interpolation-filters="sRGB">
<feFlood flood-opacity="0" result="BackgroundImageFix"/>
<feBlend mode="normal" in="SourceGraphic" in2="BackgroundImageFix" result="shape"/>
<feColorMatrix in="SourceAlpha" type="matrix" values="0 0 0 0 0 0 0 0 0 0 0 0 0 0 0 0 0 0 127 0" result="hardAlpha"/>
<feOffset dy="4"/>
<feGaussianBlur stdDeviation="2"/>
<feComposite in2="hardAlpha" operator="arithmetic" k2="-1" k3="1"/>
<feColorMatrix type="matrix" values="0 0 0 0 0 0 0 0 0 0 0 0 0 0 0 0 0 0 0.25 0"/>
<feBlend mode="normal" in2="shape" result="effect1_innerShadow_138_116"/>
</filter>
</defs>
</svg>
